<?xml version="1.0" standalone="no"?>
<!DOCTYPE svg PUBLIC "-//W3C//DTD SVG 20010904//EN"
 "http://www.w3.org/TR/2001/REC-SVG-20010904/DTD/svg10.dtd">
<svg version="1.0" xmlns="http://www.w3.org/2000/svg"
 width="1280.000000pt" height="495.000000pt" viewBox="0 0 1280.000000 495.000000"
 preserveAspectRatio="xMidYMid meet">
<metadata>
Created by potrace 1.16, written by Peter Selinger 2001-2019
</metadata>
<g transform="translate(0.000000,495.000000) scale(0.100000,-0.100000)"
fill="#000000" stroke="none">
<path d="M1382 4719 c-483 -41 -934 -307 -1176 -693 -167 -266 -241 -648 -192
-986 8 -52 17 -126 21 -165 10 -108 53 -297 95 -427 81 -245 176 -405 334
-563 216 -216 486 -345 821 -395 95 -15 328 -18 440 -7 l81 8 0 -148 c1 -252
53 -412 201 -610 261 -349 783 -535 1254 -447 201 37 414 148 535 276 200 211
305 520 321 948 11 303 -75 544 -266 743 -156 163 -366 279 -584 324 -79 16
-87 20 -83 38 3 11 13 63 22 115 23 132 15 448 -15 607 -28 149 -122 446 -178
560 -149 308 -434 556 -800 700 -261 103 -555 146 -831 122z m275 -194 c194
-27 376 -84 536 -168 53 -27 96 -51 94 -53 -1 -1 -37 6 -80 16 -384 92 -823
86 -1173 -15 -408 -118 -702 -337 -871 -650 -18 -33 -33 -57 -33 -53 0 17 85
210 121 274 211 368 544 591 969 649 129 18 314 18 437 0z m503 -279 c52 -9
144 -28 204 -42 l108 -27 87 -87 c145 -147 270 -346 330 -525 73 -223 0 -651
-160 -930 l-41 -72 -71 -22 c-261 -83 -477 -239 -611 -443 l-38 -57 -107 -25
c-220 -53 -479 -57 -701 -10 -105 21 -294 86 -377 127 -99 50 -237 145 -315
216 -73 67 -97 115 -151 306 -54 188 -62 248 -62 450 0 224 15 296 95 460 135
276 391 477 764 600 135 45 290 79 431 95 121 13 503 5 615 -14z m1209 -1816
c270 -69 487 -256 612 -527 49 -105 49 -115 2 -33 -21 35 -72 100 -112 143
-164 173 -404 286 -691 327 -47 7 -86 14 -88 15 -2 2 7 27 19 55 l23 53 75 -6
c42 -3 114 -15 160 -27z m-228 -186 c360 -68 636 -258 743 -512 40 -95 56
-177 56 -293 0 -126 -19 -234 -67 -384 -30 -93 -42 -116 -76 -149 -134 -128
-294 -210 -504 -257 -125 -28 -347 -30 -466 -5 -408 88 -671 335 -767 720 -46
180 -50 168 81 211 131 44 302 126 414 199 172 112 347 283 445 434 18 28 39
52 46 52 6 0 49 -7 95 -16z m-545 -103 c-39 -41 -171 -134 -263 -187 -79 -45
-243 -117 -250 -110 -2 2 1 14 7 27 8 17 28 29 73 43 95 30 304 139 382 200
81 63 89 67 51 27z m-1917 -75 c326 -196 754 -281 1160 -230 53 7 53 7 46 -17
-4 -13 -13 -29 -21 -35 -25 -20 -205 -39 -354 -38 -291 3 -545 79 -745 223
-80 57 -164 130 -151 131 4 0 34 -15 65 -34z m1735 -1421 c286 -152 687 -174
1016 -54 53 19 199 90 230 111 8 6 -8 -12 -37 -39 -62 -58 -182 -124 -286
-157 -245 -78 -553 -54 -810 63 -73 32 -218 123 -239 148 -7 10 3 5 22 -9 19
-14 66 -42 104 -63z"/>
<path d="M4345 4435 c-37 -18 -67 -64 -173 -260 -77 -143 -282 -568 -282 -584
0 -5 -35 -11 -77 -14 -43 -3 -90 -11 -105 -18 -56 -25 -25 -71 60 -89 l52 -12
-22 -41 c-57 -112 -188 -403 -188 -419 0 -46 121 -62 161 -21 9 10 65 122 124
248 59 127 110 233 113 236 4 4 73 10 153 14 l146 7 7 -109 c13 -202 60 -367
118 -407 45 -32 148 -11 148 29 0 8 -14 41 -30 72 -50 95 -61 171 -67 443 -5
255 7 459 44 725 12 87 14 133 7 152 -18 55 -122 81 -189 48z m-15 -367 c-5
-41 -14 -162 -20 -268 -6 -107 -12 -195 -14 -197 -1 -1 -53 -5 -115 -9 -112
-7 -113 -7 -107 14 15 45 258 543 263 538 2 -1 -1 -36 -7 -78z"/>
<path d="M8840 4422 c-18 -15 -27 -48 -56 -222 -19 -113 -60 -320 -90 -460
-86 -397 -94 -434 -94 -456 0 -49 -193 -194 -256 -194 -28 0 -52 23 -60 57
-15 58 17 270 79 518 l22 90 60 8 c118 16 124 17 130 37 16 51 -31 85 -110 78
-52 -4 -52 -4 -30 90 8 34 18 93 21 131 6 61 4 71 -14 89 -32 32 -88 39 -120
15 -23 -17 -32 -40 -59 -154 -17 -74 -32 -146 -32 -161 -1 -24 -5 -28 -30 -28
-94 0 -123 -79 -35 -96 32 -6 35 -9 29 -33 -4 -14 -12 -57 -19 -96 -34 -185
-70 -353 -82 -383 -30 -72 -142 -162 -201 -162 -15 0 -23 8 -28 29 -9 40 11
213 41 351 14 63 34 156 44 205 35 159 26 196 -50 210 -65 12 -76 -7 -125
-215 -24 -102 -51 -228 -61 -280 -11 -62 -26 -113 -45 -146 -49 -87 -172 -186
-212 -171 -22 8 -30 91 -17 172 12 77 53 243 100 405 38 132 38 161 2 201 -21
24 -39 32 -73 36 -67 8 -105 -15 -205 -120 -74 -78 -86 -87 -80 -62 3 17 9 58
13 92 5 59 4 63 -24 92 -62 61 -180 65 -253 7 -44 -35 -106 -107 -141 -162
-12 -19 -23 -33 -26 -31 -2 3 0 31 6 63 26 139 8 184 -74 184 -54 0 -58 -6
-79 -130 -8 -47 -31 -161 -50 -255 -52 -260 -89 -482 -83 -499 9 -22 67 -56
95 -56 55 0 59 7 148 255 56 157 137 320 203 406 56 73 108 125 117 117 3 -4
-6 -44 -20 -90 -45 -148 -116 -437 -116 -472 0 -48 8 -65 41 -81 41 -22 82
-19 106 8 11 12 52 85 92 162 67 130 218 371 227 363 2 -2 -17 -78 -42 -169
-37 -132 -47 -185 -51 -275 -8 -155 14 -212 99 -255 91 -46 192 -34 295 37
l53 36 35 -31 c44 -39 69 -45 159 -39 73 5 169 39 208 75 17 15 19 14 39 -11
27 -35 87 -64 155 -77 65 -12 151 6 212 45 32 20 40 22 48 10 5 -8 28 -21 52
-30 67 -23 93 -6 110 71 41 196 93 329 188 488 73 122 135 195 202 234 90 53
92 18 13 -245 -115 -379 -123 -439 -72 -509 65 -90 205 -116 310 -58 64 35
166 126 187 166 22 43 18 95 -8 113 -12 9 -29 16 -37 16 -8 0 -60 -45 -116
-100 -102 -98 -143 -123 -174 -103 -9 6 -17 27 -19 47 -4 47 38 217 89 359 56
155 81 261 73 304 -8 43 -57 101 -101 119 -43 18 -150 18 -202 -1 -63 -22
-127 -72 -177 -139 -24 -33 -44 -55 -44 -48 0 6 16 80 36 164 61 263 104 468
104 494 0 14 -11 36 -25 49 -30 31 -92 34 -125 7z"/>
<path d="M7942 4264 c-51 -36 -69 -127 -32 -164 13 -13 33 -20 59 -20 32 0 44
6 75 40 41 46 53 82 37 116 -19 42 -96 58 -139 28z"/>
<path d="M5526 4198 c-20 -19 -30 -50 -55 -162 -17 -76 -31 -147 -31 -157 0
-14 -7 -19 -29 -19 -16 0 -38 -3 -48 -7 -16 -6 -16 -5 -5 9 18 23 2 52 -38 68
-42 17 -136 8 -191 -20 -24 -12 -65 -43 -91 -68 -43 -41 -48 -44 -48 -24 0 40
-43 72 -95 72 -38 0 -47 -4 -55 -22 -13 -32 -150 -799 -150 -840 0 -54 101
-79 152 -38 22 16 27 33 37 112 32 245 84 408 178 550 63 97 144 157 252 188
25 7 26 5 26 -28 0 -33 3 -37 35 -46 19 -5 37 -11 39 -12 2 -2 -2 -24 -8 -51
-42 -179 -82 -408 -82 -476 -2 -145 67 -232 204 -257 77 -15 162 6 240 60 l59
40 20 -25 c11 -14 39 -36 61 -48 36 -19 57 -22 152 -22 108 0 111 1 185 39 91
46 124 76 158 141 22 42 26 63 25 125 -1 156 -89 259 -280 331 -46 18 -86 36
-89 41 -19 30 87 87 231 123 116 29 120 31 123 58 4 37 -20 73 -53 79 -30 6
-176 -22 -250 -47 -76 -26 -121 -52 -160 -91 -44 -43 -55 -71 -55 -131 0 -66
48 -111 155 -147 94 -31 178 -84 200 -126 19 -36 19 -100 1 -143 -18 -44 -108
-105 -166 -113 -84 -11 -132 30 -145 125 -8 62 -15 71 -58 78 -34 5 -37 3 -66
-43 -49 -79 -194 -184 -255 -184 -29 0 -54 22 -62 57 -14 54 27 314 84 538
l18 70 86 11 c100 14 108 17 108 48 0 46 -23 61 -94 61 -36 0 -66 2 -66 5 0 3
9 51 20 108 31 158 27 193 -21 217 -40 21 -74 19 -103 -7z"/>
<path d="M5205 2432 c-20 -12 -54 -60 -98 -138 -68 -117 -281 -544 -328 -656
l-24 -58 -55 -1 c-78 -1 -144 -20 -148 -42 -6 -30 26 -55 84 -67 l54 -11 -37
-72 c-67 -133 -173 -371 -173 -389 0 -21 49 -48 87 -48 15 0 41 8 56 18 28 17
40 40 214 413 l40 86 141 8 c78 4 146 4 151 0 6 -3 11 -27 11 -53 0 -132 35
-313 76 -393 29 -59 57 -79 107 -79 82 0 99 31 58 109 -50 96 -62 179 -68 443
-6 255 4 430 39 700 17 133 19 173 10 193 -24 52 -138 73 -197 37z m-5 -360
c-5 -40 -15 -161 -21 -269 -6 -109 -12 -199 -13 -200 -1 -1 -54 -5 -119 -9
l-117 -7 96 199 c53 109 114 237 136 282 22 46 41 82 44 79 2 -2 0 -36 -6 -75z"/>
<path d="M6263 2360 c-12 -5 -25 -19 -27 -32 -9 -39 -108 -462 -112 -476 -3
-9 -14 -7 -44 8 -106 54 -198 34 -284 -62 -140 -154 -229 -458 -183 -618 49
-166 157 -249 286 -220 47 11 65 22 128 84 l73 72 45 -42 c42 -41 117 -74 167
-74 54 0 114 25 153 65 l42 41 33 -39 c50 -60 146 -101 235 -102 126 0 186 38
276 178 51 78 85 190 98 317 9 86 9 106 -5 131 -24 48 -116 77 -142 46 -6 -7
-11 -42 -11 -78 1 -123 -82 -347 -161 -433 -50 -54 -73 -63 -105 -42 -56 37
-91 180 -74 300 12 87 43 211 68 269 35 81 122 157 180 157 22 0 41 -27 41
-60 0 -36 44 -70 89 -70 53 0 86 38 76 89 -21 109 -150 171 -284 137 -185 -47
-321 -252 -347 -524 -5 -48 -15 -83 -37 -121 -37 -66 -120 -155 -139 -149 -44
15 -87 162 -74 256 4 26 29 144 56 262 74 324 122 587 117 643 -3 30 -12 56
-23 67 -23 22 -81 33 -111 20z m-243 -625 c15 -31 30 -47 47 -51 25 -7 26 -8
19 -77 -20 -213 -136 -470 -236 -522 -27 -14 -30 -13 -49 11 -58 74 -30 357
50 517 28 55 121 167 140 167 4 0 17 -20 29 -45z"/>
<path d="M11677 2198 c-19 -19 -30 -56 -57 -181 -34 -157 -34 -157 -61 -157
-49 0 -79 -20 -79 -52 0 -22 6 -31 27 -39 15 -6 36 -8 46 -5 14 3 17 1 12 -12
-7 -18 -7 -19 -61 -287 -33 -162 -41 -186 -75 -236 -40 -59 -96 -114 -136
-132 -21 -9 -27 -8 -39 8 -26 35 -16 129 42 387 51 226 56 253 45 289 -16 52
-73 115 -118 130 -82 27 -201 -22 -309 -127 l-64 -61 6 67 c6 63 5 68 -17 84
-28 19 -88 21 -113 3 -18 -13 -32 -74 -91 -388 l-27 -147 -56 -71 c-93 -115
-222 -199 -322 -209 -39 -3 -51 0 -78 23 -18 15 -39 40 -47 55 -21 42 -36 149
-28 205 l8 49 80 11 c98 15 171 50 233 113 77 80 116 198 98 296 -14 73 -98
135 -182 136 -172 1 -377 -295 -410 -595 -4 -38 -17 -79 -35 -111 -49 -87
-172 -186 -212 -171 -9 3 -17 26 -21 59 -9 78 10 177 89 464 55 197 56 215 11
260 -28 28 -42 34 -76 34 -64 0 -102 -24 -197 -123 -60 -64 -84 -84 -80 -67 4
14 10 54 14 90 5 61 4 68 -21 97 -53 63 -182 68 -255 9 -35 -27 -99 -100 -154
-176 l-18 -25 6 25 c13 61 17 177 6 198 -24 45 -120 46 -133 1 -9 -29 -73
-348 -103 -511 -16 -87 -28 -127 -50 -159 -42 -64 -112 -135 -147 -150 -27
-11 -32 -10 -44 6 -25 34 -15 124 42 378 37 167 54 262 50 285 -12 78 -95 151
-171 152 -76 0 -181 -57 -272 -148 l-52 -52 6 69 c5 63 4 69 -18 85 -29 20
-93 21 -113 1 -20 -21 -17 -5 -96 -421 -77 -404 -77 -410 -21 -439 40 -20 74
-19 94 3 9 10 40 85 68 168 83 245 158 386 271 510 42 46 148 117 148 99 0 -5
-49 -229 -84 -379 -61 -265 -39 -365 94 -425 69 -32 131 -28 205 13 56 30 64
32 86 20 34 -19 76 -17 97 4 11 11 31 54 47 98 89 252 154 399 222 501 41 62
118 149 143 163 16 8 15 2 -6 -68 -43 -138 -124 -462 -124 -496 0 -48 8 -65
41 -81 41 -22 82 -19 106 8 11 12 52 85 92 162 69 132 218 371 227 362 2 -2
-10 -53 -27 -113 -113 -398 -91 -558 85 -605 85 -23 196 10 282 85 l39 34 49
-44 c116 -105 335 -105 510 1 53 32 57 33 66 14 13 -23 61 -49 93 -49 13 0 31
8 40 18 9 10 41 91 72 180 78 230 149 365 256 486 51 57 115 106 139 106 20 0
12 -43 -60 -351 -67 -284 -46 -386 90 -448 83 -38 183 -18 268 54 l33 28 32
-33 c49 -50 110 -73 192 -73 76 1 127 18 204 71 l44 30 24 -29 c13 -15 50 -38
81 -49 47 -18 73 -21 147 -18 76 3 100 9 158 37 124 59 185 134 194 239 15
161 -84 288 -284 363 -46 18 -86 36 -90 42 -7 11 34 48 82 75 17 9 84 30 150
47 114 29 120 31 123 57 2 15 -2 36 -8 48 -20 37 -52 41 -153 21 -178 -36
-280 -87 -332 -165 -22 -35 -26 -49 -22 -95 3 -47 9 -59 39 -86 21 -20 65 -42
114 -59 87 -29 167 -76 197 -117 26 -35 26 -117 1 -160 -26 -44 -105 -96 -159
-104 -88 -14 -127 19 -148 125 -12 60 -15 65 -44 74 -43 12 -59 4 -82 -42 -34
-66 -196 -182 -254 -182 -13 0 -32 9 -43 21 -36 40 -20 209 51 514 14 61 29
116 33 122 4 7 39 15 77 19 99 10 115 17 115 54 0 43 -35 63 -105 58 -30 -1
-55 -1 -55 2 0 3 9 47 20 99 38 178 26 227 -58 238 -34 5 -45 1 -65 -19z
m-1327 -411 c0 -59 -50 -156 -103 -203 -39 -34 -124 -80 -132 -72 -8 8 62 165
94 211 33 49 103 107 128 107 9 0 13 -14 13 -43z"/>
<path d="M7667 1925 c-47 -17 -129 -77 -154 -111 l-18 -24 -1 32 c-2 43 -34
68 -89 68 -23 0 -47 -6 -52 -12 -5 -7 -21 -78 -36 -158 -57 -313 -117 -665
-117 -690 0 -44 31 -63 92 -58 67 7 83 27 93 115 4 37 19 130 35 206 24 114
38 157 84 250 85 173 154 239 309 297 48 18 57 25 57 45 0 50 -115 72 -203 40z"/>
</g>
</svg>
