<?xml version="1.0" encoding="UTF-8"?>
<svg xmlns="http://www.w3.org/2000/svg" xmlns:xlink="http://www.w3.org/1999/xlink" width="375pt" height="374.999991pt" viewBox="0 0 375 374.999991" version="1.2">
<defs>
<clipPath id="clip1">
  <path d="M 13.082031 0 L 286 0 L 286 274 L 13.082031 274 Z M 13.082031 0 "/>
</clipPath>
<clipPath id="clip2">
  <path d="M 166 178 L 361.832031 178 L 361.832031 375 L 166 375 Z M 166 178 "/>
</clipPath>
</defs>
<g id="surface1">
<g clip-path="url(#clip1)" clip-rule="nonzero">
<path style=" stroke:none;fill-rule:nonzero;fill:rgb(58.039856%,40.388489%,13.729858%);fill-opacity:1;" d="M 18.832031 102.867188 C 18.832031 102.867188 19.152344 101.117188 19.761719 97.742188 C 20.023438 96.058594 20.523438 93.949219 21.125 91.449219 C 21.664062 88.914062 22.503906 86.046875 23.464844 82.816406 C 25.5 76.375 28.492188 68.515625 33.308594 59.851562 C 38.078125 51.183594 44.898438 41.800781 54.316406 32.945312 C 59.042969 28.554688 64.355469 24.234375 70.382812 20.367188 C 76.40625 16.496094 83.089844 13.023438 90.328125 10.066406 C 97.574219 7.113281 105.378906 4.699219 113.652344 2.964844 C 121.925781 1.265625 130.648438 0.273438 139.6875 0.0390625 C 157.738281 -0.363281 177.15625 2.257812 196.371094 9.246094 C 205.945312 12.78125 215.542969 17.234375 224.667969 23.054688 C 233.816406 28.84375 242.640625 35.832031 250.359375 44.351562 C 254.195312 48.609375 257.878906 53.144531 261.082031 58.101562 C 262.773438 60.511719 264.195312 63.136719 265.714844 65.703125 C 267.066406 68.359375 268.523438 70.996094 269.679688 73.792969 C 270.972656 76.527344 271.964844 79.410156 273.046875 82.261719 C 273.929688 85.179688 274.96875 88.078125 275.613281 91.097656 C 277.167969 97.058594 278.027344 103.234375 278.511719 109.449219 C 279.023438 115.691406 278.792969 121.96875 278.292969 128.253906 C 277.570312 134.496094 276.652344 140.765625 275.058594 146.886719 L 274.5 149.210938 L 274.210938 150.390625 L 273.902344 151.453125 L 272.707031 155.757812 C 272.28125 157.21875 271.703125 158.871094 271.199219 160.410156 C 270.683594 162.015625 270.15625 163.574219 269.542969 165.050781 C 267.332031 171.117188 264.449219 176.992188 261.167969 182.699219 C 254.636719 194.113281 245.949219 204.511719 235.796875 213.296875 C 225.492188 221.957031 213.714844 228.929688 201.125 233.953125 C 175.847656 243.863281 147.6875 246.203125 120.589844 241.40625 C 107.046875 239.015625 93.6875 234.890625 81.144531 228.785156 C 68.644531 222.660156 56.789062 214.828125 46.726562 204.886719 C 36.679688 194.988281 28.308594 183.191406 22.660156 170.078125 C 16.894531 157.015625 14.015625 142.738281 13.472656 128.449219 C 13.453125 126.628906 13.308594 124.921875 13.390625 123.03125 L 13.507812 117.792969 C 13.53125 116.050781 13.746094 114.195312 13.855469 112.402344 C 13.980469 110.589844 14.121094 108.789062 14.386719 107.019531 C 15.164062 99.882812 16.742188 92.816406 18.738281 85.859375 C 22.710938 71.929688 29.761719 58.808594 38.988281 47.433594 C 48.195312 35.996094 59.90625 26.65625 72.761719 19.515625 C 85.617188 12.308594 99.757812 7.519531 114.246094 4.816406 C 143.238281 -0.570312 173.875 2.589844 201.394531 14.070312 C 215.09375 19.929688 228.027344 27.839844 239.292969 37.785156 C 244.878906 42.78125 250.0625 48.242188 254.773438 54.082031 C 259.460938 59.953125 263.582031 66.242188 267.246094 72.773438 C 274.535156 85.867188 279.355469 100.121094 282.269531 114.554688 C 282.859375 118.175781 283.621094 121.78125 283.988281 125.414062 L 284.632812 130.855469 L 285.035156 136.308594 C 285.375 139.9375 285.304688 143.546875 285.433594 147.175781 C 285.476562 148.988281 285.390625 150.789062 285.367188 152.59375 L 285.304688 155.289062 L 285.273438 156.640625 C 285.246094 157.136719 285.324219 156.515625 285.203125 157.890625 L 285.136719 158.53125 C 284.941406 160.273438 284.832031 161.855469 284.566406 163.707031 C 284.269531 165.632812 283.996094 167.613281 283.648438 169.476562 C 283.257812 171.304688 282.910156 173.148438 282.484375 174.976562 C 282.007812 176.78125 281.566406 178.609375 281.039062 180.394531 C 278.9375 187.582031 276.089844 194.527344 272.613281 201.09375 C 265.65625 214.234375 256.1875 225.757812 245.378906 235.308594 C 234.554688 244.847656 222.441406 252.578125 209.667969 258.355469 C 196.914062 264.164062 183.574219 268.210938 170.082031 270.601562 C 156.589844 272.9375 142.925781 273.652344 129.5 272.488281 C 116.082031 271.304688 102.871094 268.328125 90.492188 263.371094 C 78.105469 258.457031 66.644531 251.378906 56.867188 242.679688 C 47.089844 233.980469 39.046875 223.613281 33.253906 212.449219 C 30.34375 206.910156 27.8125 201.109375 25.941406 195.429688 L 24.554688 191.417969 L 23.222656 187.121094 C 22.289062 184.273438 21.578125 181.464844 20.808594 178.652344 C 17.832031 167.417969 16.042969 155.953125 15.558594 144.558594 C 15.371094 138.859375 15.484375 133.179688 16.113281 127.566406 C 16.332031 124.765625 16.851562 121.988281 17.253906 119.222656 C 17.835938 116.476562 18.324219 113.738281 19.089844 111.074219 C 20.472656 105.691406 22.328125 100.488281 24.585938 95.554688 C 26.789062 90.589844 29.425781 85.886719 32.402344 81.523438 C 38.261719 72.722656 45.441406 65.253906 53.136719 59.167969 C 60.808594 52.988281 69.011719 48.199219 77.175781 44.242188 C 85.398438 40.390625 93.617188 37.402344 101.699219 35.160156 C 109.785156 32.957031 117.683594 31.4375 125.308594 30.394531 C 140.554688 28.328125 154.675781 28.210938 167.300781 29.167969 C 192.597656 31.039062 211.734375 37.019531 224.164062 42.082031 C 230.40625 44.65625 234.996094 47.003906 238.050781 48.632812 C 241.070312 50.339844 242.625 51.214844 242.625 51.214844 L 241.664062 53.027344 C 241.664062 53.027344 240.054688 52.296875 236.953125 50.898438 C 233.816406 49.574219 229.121094 47.679688 222.847656 45.734375 C 210.347656 41.816406 191.339844 37.546875 166.953125 37.367188 C 154.796875 37.328125 141.308594 38.230469 127.042969 41.023438 C 112.800781 43.816406 97.710938 48.5 83.195312 56.203125 C 68.769531 63.929688 55.050781 75.132812 45.734375 90.179688 C 43.394531 93.90625 41.359375 97.894531 39.695312 102.078125 C 37.984375 106.246094 36.601562 110.609375 35.632812 115.140625 C 35.066406 117.378906 34.765625 119.714844 34.355469 122.019531 C 34.109375 124.359375 33.753906 126.699219 33.664062 129.097656 C 33.292969 133.851562 33.4375 138.730469 33.71875 143.648438 C 34.421875 153.488281 36.25 163.574219 39.222656 173.640625 C 39.988281 176.140625 40.703125 178.710938 41.578125 181.144531 L 42.828125 184.832031 L 44.3125 188.753906 C 46.101562 193.746094 48.292969 198.332031 50.835938 202.878906 C 55.886719 211.929688 62.539062 220.125 70.566406 227.023438 C 78.59375 233.929688 88.023438 239.472656 98.339844 243.421875 C 108.636719 247.410156 119.808594 249.832031 131.292969 250.726562 C 142.773438 251.644531 154.609375 251.140625 166.316406 249.109375 C 189.714844 245.027344 212.832031 235.035156 231.382812 219.277344 C 240.609375 211.375 248.574219 201.960938 254.425781 191.3125 C 257.367188 185.992188 259.765625 180.367188 261.601562 174.535156 C 262.0625 173.082031 262.453125 171.59375 262.867188 170.121094 C 263.25 168.640625 263.574219 167.128906 263.914062 165.632812 C 264.238281 164.160156 264.433594 162.746094 264.714844 161.3125 C 264.96875 159.796875 265.136719 157.96875 265.359375 156.308594 L 265.445312 155.671875 C 265.367188 156.640625 265.445312 155.605469 265.429688 155.664062 L 265.488281 154.4375 L 265.582031 152 C 265.632812 150.390625 265.75 148.75 265.75 147.132812 C 265.683594 143.894531 265.835938 140.628906 265.582031 137.386719 L 265.324219 132.53125 L 264.859375 127.691406 C 264.59375 124.453125 263.972656 121.28125 263.53125 118.058594 C 261.234375 105.316406 257.230469 92.875 251.246094 81.382812 C 239.417969 58.289062 219.242188 39.574219 195.105469 28.195312 C 170.984375 16.808594 143.042969 12.359375 116.050781 16.074219 C 102.582031 17.933594 89.304688 21.75 77.125 27.851562 C 64.988281 33.90625 53.863281 42.15625 44.921875 52.425781 C 36.042969 62.710938 29.230469 74.804688 25.160156 87.824219 C 23.089844 94.3125 21.554688 101.007812 20.773438 107.785156 C 20.496094 109.476562 20.359375 111.160156 20.234375 112.84375 C 20.117188 114.546875 19.894531 116.167969 19.855469 117.929688 L 19.703125 123.175781 C 19.617188 124.765625 19.738281 126.542969 19.75 128.21875 C 20.089844 141.808594 22.886719 155.289062 28.40625 167.527344 C 33.890625 179.773438 41.898438 190.753906 51.675781 199.683594 C 61.429688 208.628906 72.691406 215.832031 84.734375 220.917969 C 96.757812 226.046875 109.425781 229.371094 122.171875 230.859375 C 134.90625 232.355469 147.6875 232.195312 160.050781 230.382812 C 172.394531 228.554688 184.289062 225.050781 195.257812 220.085938 C 217.226562 210.144531 234.980469 193.703125 245.625 173.929688 C 248.261719 168.980469 250.625 163.914062 252.496094 158.664062 C 253.015625 157.347656 253.429688 156.082031 253.820312 154.8125 C 254.222656 153.503906 254.65625 152.347656 255.046875 150.933594 L 256.203125 146.613281 L 256.484375 145.542969 L 256.703125 144.558594 L 257.171875 142.542969 C 258.582031 137.191406 259.339844 131.808594 259.96875 126.476562 C 260.351562 121.136719 260.65625 115.839844 260.273438 110.625 C 259.945312 105.421875 259.304688 100.285156 258.082031 95.308594 C 257.589844 92.800781 256.746094 90.394531 256.058594 87.960938 C 255.183594 85.585938 254.410156 83.183594 253.363281 80.902344 C 252.4375 78.566406 251.246094 76.359375 250.148438 74.121094 C 248.898438 71.96875 247.769531 69.75 246.347656 67.710938 C 243.722656 63.511719 240.644531 59.628906 237.429688 55.949219 C 224.496094 41.191406 207.808594 30.726562 190.792969 23.976562 C 173.703125 17.335938 156.214844 13.980469 139.738281 13.691406 C 131.488281 13.539062 123.507812 14.128906 115.90625 15.324219 C 108.285156 16.476562 101.042969 18.269531 94.296875 20.578125 C 80.746094 25.171875 69.300781 31.992188 60.046875 39.476562 C 55.363281 43.175781 51.429688 47.253906 47.8125 51.1875 C 46.101562 53.230469 44.347656 55.15625 42.890625 57.195312 C 42.125 58.195312 41.375 59.175781 40.640625 60.140625 C 39.953125 61.140625 39.28125 62.128906 38.625 63.101562 C 33.359375 70.882812 29.902344 78.191406 27.328125 84.207031 C 26.089844 87.238281 24.984375 89.933594 24.226562 92.304688 C 23.398438 94.652344 22.707031 96.644531 22.269531 98.320312 C 21.316406 101.617188 20.824219 103.320312 20.824219 103.320312 L 18.832031 102.867188 "/>
</g>
<g clip-path="url(#clip2)" clip-rule="nonzero">
<path style=" stroke:none;fill-rule:nonzero;fill:rgb(43.919373%,45.489502%,43.919373%);fill-opacity:1;" d="M 356.191406 253.0625 C 356.191406 253.0625 355.832031 251.839844 355.144531 249.46875 C 354.839844 248.269531 354.335938 246.832031 353.75 245.136719 C 353.195312 243.4375 352.40625 241.507812 351.515625 239.320312 C 349.667969 235.007812 347.175781 229.753906 343.402344 224.167969 C 342.925781 223.46875 342.441406 222.753906 341.949219 222.039062 C 341.421875 221.34375 340.878906 220.636719 340.332031 219.921875 C 339.289062 218.460938 338.027344 217.074219 336.796875 215.601562 C 334.203125 212.777344 331.371094 209.84375 328.003906 207.183594 C 321.355469 201.808594 313.132812 196.910156 303.398438 193.609375 C 298.542969 191.953125 293.347656 190.667969 287.875 189.835938 C 282.414062 188.976562 276.675781 188.550781 270.75 188.660156 C 258.914062 188.875 246.347656 191.28125 234.0625 196.050781 C 221.84375 200.898438 209.855469 208.417969 200.5625 219.019531 C 198.25 221.667969 196.039062 224.457031 194.152344 227.476562 C 193.132812 228.9375 192.324219 230.535156 191.421875 232.074219 C 190.640625 233.691406 189.773438 235.273438 189.109375 236.949219 C 188.363281 238.589844 187.800781 240.324219 187.179688 242.027344 C 186.6875 243.769531 186.074219 245.503906 185.71875 247.308594 C 184.84375 250.878906 184.382812 254.570312 184.144531 258.304688 C 183.871094 262.054688 184.09375 265.855469 184.367188 269.699219 C 184.824219 273.527344 185.359375 277.394531 186.371094 281.238281 L 186.710938 282.683594 L 186.875 283.398438 L 187.078125 284.164062 L 187.902344 287.269531 C 188.183594 288.28125 188.496094 289.113281 188.785156 290.058594 C 189.058594 290.96875 189.363281 291.878906 189.738281 292.832031 C 191.082031 296.597656 192.78125 300.238281 194.671875 303.785156 C 202.3125 318.003906 215.078125 329.808594 230.863281 336.953125 C 238.738281 340.523438 247.292969 343.039062 256.160156 344.351562 C 265.035156 345.660156 274.21875 345.769531 283.375 344.691406 C 292.523438 343.628906 301.628906 341.238281 310.269531 337.554688 C 318.925781 333.898438 327.011719 328.726562 334.023438 322.296875 C 341.046875 315.878906 346.796875 307.992188 350.738281 299.191406 C 354.703125 290.398438 356.71875 280.71875 356.964844 270.949219 C 356.964844 269.75 357.058594 268.472656 356.996094 267.328125 L 356.878906 263.558594 C 356.851562 262.292969 356.691406 261.125 356.605469 259.902344 C 356.523438 258.695312 356.417969 257.476562 356.222656 256.269531 C 355.664062 251.398438 354.558594 246.585938 353.070312 241.921875 C 350.152344 232.578125 345.246094 223.886719 338.871094 216.496094 C 332.453125 209.113281 324.460938 203.1875 315.734375 198.832031 C 306.988281 194.453125 297.445312 191.714844 287.773438 190.378906 C 268.378906 187.699219 248.304688 190.90625 230.976562 199.085938 C 213.632812 207.261719 199.125 220.707031 190.640625 237.296875 C 186.328125 245.554688 183.457031 254.492188 181.804688 263.652344 C 181.484375 265.957031 181.042969 268.234375 180.855469 270.574219 L 180.515625 274.042969 L 180.335938 277.539062 C 180.148438 279.863281 180.269531 282.207031 180.214844 284.539062 C 180.214844 285.695312 180.300781 286.878906 180.335938 288.035156 L 180.402344 289.785156 L 180.445312 290.671875 C 180.4375 290.621094 180.480469 291.367188 180.4375 290.679688 L 180.496094 291.128906 C 180.648438 292.320312 180.769531 293.640625 180.957031 294.71875 C 181.160156 295.757812 181.304688 296.769531 181.535156 297.832031 C 181.78125 298.902344 182.003906 299.992188 182.28125 301.054688 C 182.589844 302.117188 182.871094 303.179688 183.191406 304.226562 C 184.519531 308.417969 186.234375 312.449219 188.34375 316.285156 C 192.554688 323.929688 198.277344 330.699219 204.90625 336.375 C 218.230469 347.691406 234.835938 354.878906 251.652344 357.804688 C 260.070312 359.265625 268.574219 359.632812 276.820312 358.96875 C 285.066406 358.324219 293.09375 356.589844 300.492188 353.722656 C 307.90625 350.882812 314.679688 346.902344 320.445312 341.945312 C 326.21875 336.984375 330.996094 331.09375 334.628906 324.59375 C 336.457031 321.320312 338.027344 318.027344 339.3125 314.441406 L 340.375 311.625 L 341.277344 308.972656 C 341.90625 307.230469 342.425781 305.382812 342.96875 303.582031 C 345.101562 296.34375 346.421875 289.105469 346.921875 282.03125 C 347.125 278.5 347.230469 274.996094 346.964844 271.578125 C 346.898438 269.859375 346.640625 268.175781 346.464844 266.492188 C 346.175781 264.835938 345.960938 263.167969 345.554688 261.550781 C 344.847656 258.292969 343.863281 255.164062 342.628906 252.164062 C 341.4375 249.160156 339.976562 246.296875 338.292969 243.617188 C 331.59375 232.808594 321.738281 224.761719 311.375 219.207031 C 300.941406 213.671875 290.101562 210.3125 279.871094 208.296875 C 269.617188 206.289062 259.933594 205.644531 251.195312 205.667969 C 233.679688 205.804688 220.015625 208.875 211.039062 211.683594 C 206.53125 213.085938 203.15625 214.445312 200.902344 215.398438 C 198.675781 216.402344 197.519531 216.921875 197.519531 216.921875 L 196.832031 215.628906 C 196.832031 215.628906 197.945312 214.992188 200.113281 213.765625 C 202.304688 212.59375 205.613281 210.910156 210.09375 209.0625 C 219.019531 205.421875 232.769531 201.128906 250.949219 199.785156 C 260.019531 199.09375 270.164062 199.179688 281.113281 200.660156 C 286.597656 201.417969 292.269531 202.507812 298.085938 204.085938 C 303.890625 205.703125 309.792969 207.847656 315.703125 210.617188 C 321.558594 213.460938 327.460938 216.894531 332.96875 221.335938 C 338.503906 225.714844 343.65625 231.070312 347.875 237.398438 C 350.007812 240.539062 351.90625 243.914062 353.484375 247.476562 C 355.109375 251.023438 356.445312 254.765625 357.429688 258.625 C 357.984375 260.539062 358.332031 262.511719 358.75 264.484375 C 359.039062 266.476562 359.414062 268.464844 359.574219 270.480469 C 360.023438 274.511719 360.109375 278.59375 359.972656 282.683594 C 359.625 290.875 358.339844 299.105469 356.199219 307.1875 C 355.644531 309.203125 355.136719 311.226562 354.464844 313.265625 L 353.503906 316.355469 L 352.507812 319.246094 C 351.164062 323.320312 349.34375 327.496094 347.253906 331.464844 C 343.097656 339.484375 337.316406 346.933594 330.292969 353.1875 C 323.261719 359.445312 315.03125 364.523438 306.136719 368.050781 C 297.234375 371.613281 287.746094 373.757812 278.105469 374.601562 C 268.453125 375.441406 258.640625 374.921875 248.941406 373.25 C 239.257812 371.53125 229.667969 368.621094 220.5 364.453125 C 211.335938 360.304688 202.621094 354.742188 194.847656 347.886719 C 187.085938 341.023438 180.285156 332.75 175.285156 323.308594 C 172.785156 318.589844 170.738281 313.597656 169.230469 308.4375 C 168.847656 307.152344 168.535156 305.832031 168.195312 304.542969 C 167.878906 303.230469 167.632812 301.90625 167.351562 300.59375 C 167.097656 299.261719 166.910156 297.832031 166.6875 296.453125 C 166.503906 295.117188 166.425781 293.980469 166.289062 292.730469 L 166.238281 292.269531 C 166.152344 291.273438 166.203125 291.714844 166.1875 291.367188 L 166.164062 290.398438 L 166.121094 288.460938 C 166.101562 287.167969 166.042969 285.875 166.070312 284.566406 C 166.164062 281.960938 166.109375 279.367188 166.367188 276.765625 L 166.648438 272.84375 L 167.105469 268.933594 C 167.378906 266.324219 167.914062 263.730469 168.347656 261.125 C 170.4375 250.757812 173.90625 240.519531 179.136719 231.113281 C 181.765625 226.421875 184.730469 221.90625 188.105469 217.6875 C 191.480469 213.484375 195.214844 209.566406 199.226562 205.976562 C 207.3125 198.832031 216.605469 193.144531 226.453125 188.933594 C 246.230469 180.683594 268.234375 178.414062 289.0625 182.28125 C 299.472656 184.222656 309.632812 187.664062 318.875 192.851562 C 328.105469 197.972656 336.515625 204.691406 343.140625 212.90625 C 349.761719 221.078125 354.828125 230.511719 357.6875 240.519531 C 359.125 245.511719 360.253906 250.589844 360.808594 255.71875 C 361.003906 256.984375 361.105469 258.285156 361.199219 259.585938 C 361.273438 260.871094 361.425781 262.207031 361.445312 263.457031 L 361.53125 267.222656 C 361.582031 268.585938 361.488281 269.808594 361.46875 271.109375 C 361.078125 281.375 359.011719 291.640625 354.871094 301.019531 C 350.808594 310.441406 344.796875 318.921875 337.578125 326.03125 C 330.351562 333.175781 321.832031 338.804688 312.84375 343.203125 C 303.839844 347.589844 294.242188 350.550781 284.507812 352.269531 C 265.042969 355.710938 244.808594 354.035156 226.648438 346.917969 C 217.59375 343.304688 209.140625 338.296875 201.734375 332.078125 C 194.441406 325.757812 188.191406 318.292969 183.507812 310.09375 C 181.152344 305.996094 179.078125 301.769531 177.488281 297.414062 C 177.054688 296.34375 176.664062 295.230469 176.296875 294.082031 C 175.941406 292.976562 175.515625 291.785156 175.21875 290.738281 L 174.351562 287.644531 L 174.136719 286.878906 L 173.925781 286.027344 L 173.515625 284.359375 C 172.378906 279.964844 171.722656 275.457031 171.203125 270.972656 C 170.839844 266.457031 170.675781 261.953125 171.042969 257.460938 C 171.390625 252.996094 172.011719 248.566406 173.125 244.277344 C 173.59375 242.109375 174.332031 240.027344 174.96875 237.925781 C 175.746094 235.875 176.457031 233.808594 177.386719 231.847656 C 178.21875 229.832031 179.265625 227.941406 180.242188 226.039062 C 181.332031 224.191406 182.351562 222.304688 183.566406 220.570312 C 185.871094 217.015625 188.515625 213.75 191.269531 210.695312 C 196.820312 204.574219 203.15625 199.546875 209.726562 195.386719 C 216.285156 191.210938 223.179688 188.007812 230.058594 185.472656 C 243.867188 180.445312 257.816406 178.566406 270.792969 178.855469 C 277.28125 179.015625 283.554688 179.730469 289.496094 180.957031 C 295.433594 182.207031 301.042969 183.941406 306.246094 186.058594 C 311.449219 188.183594 316.246094 190.675781 320.582031 193.457031 C 324.917969 196.238281 328.726562 199.34375 332.121094 202.496094 C 338.886719 208.859375 343.785156 215.601562 347.21875 221.828125 C 350.679688 228.054688 352.832031 233.699219 354.292969 238.328125 C 354.984375 240.648438 355.585938 242.707031 355.96875 244.527344 C 356.402344 246.328125 356.761719 247.84375 356.957031 249.050781 C 357.390625 251.472656 357.617188 252.734375 357.617188 252.734375 L 356.191406 253.0625 "/>
</g>
</g>
</svg>
